<mxfile host="app.diagrams.net" agent="Mozilla/5.0 (Windows NT 10.0; Win64; x64) AppleWebKit/537.36 (KHTML, like Gecko) Chrome/132.0.0.0 YaBrowser/25.2.0.0 Safari/537.36" version="26.2.6">
  <diagram name="Page-1" id="0783ab3e-0a74-02c8-0abd-f7b4e66b4bec">
    <mxGraphModel dx="1385" dy="923" grid="1" gridSize="10" guides="1" tooltips="1" connect="1" arrows="1" fold="1" page="1" pageScale="1" pageWidth="850" pageHeight="1100" background="none" math="0" shadow="0">
      <root>
        <mxCell id="0" />
        <mxCell id="1" parent="0" />
        <mxCell id="1c1d494c118603dd-1" value="Pool" style="swimlane;html=1;childLayout=stackLayout;startSize=20;rounded=0;shadow=0;comic=0;labelBackgroundColor=none;strokeWidth=1;fontFamily=Verdana;fontSize=12;align=center;" parent="1" vertex="1">
          <mxGeometry x="40" y="20" width="280" height="990" as="geometry" />
        </mxCell>
        <mxCell id="1c1d494c118603dd-2" value="Администратор" style="swimlane;html=1;startSize=20;" parent="1c1d494c118603dd-1" vertex="1" collapsed="1">
          <mxGeometry y="20" width="40" height="970" as="geometry">
            <mxRectangle y="20" width="250" height="970" as="alternateBounds" />
          </mxGeometry>
        </mxCell>
        <mxCell id="q2xnLpdlxY3K4vXlhci7-5" value="" style="ellipse;whiteSpace=wrap;html=1;aspect=fixed;labelBackgroundColor=#FFFFFF;fillColor=#000000;" vertex="1" parent="1c1d494c118603dd-2">
          <mxGeometry x="105" y="40" width="40" height="40" as="geometry" />
        </mxCell>
        <mxCell id="1c1d494c118603dd-3" value="Lane 2" style="swimlane;html=1;startSize=20;" parent="1c1d494c118603dd-1" vertex="1" collapsed="1">
          <mxGeometry x="40" y="20" width="40" height="970" as="geometry">
            <mxRectangle x="250" y="20" width="250" height="970" as="alternateBounds" />
          </mxGeometry>
        </mxCell>
        <mxCell id="1c1d494c118603dd-4" value="Lane 3" style="swimlane;html=1;startSize=20;" parent="1c1d494c118603dd-1" vertex="1" collapsed="1">
          <mxGeometry x="80" y="20" width="40" height="970" as="geometry">
            <mxRectangle x="80" y="20" width="250" height="970" as="alternateBounds" />
          </mxGeometry>
        </mxCell>
        <mxCell id="q2xnLpdlxY3K4vXlhci7-1" value="Lane 3" style="swimlane;html=1;startSize=20;" vertex="1" collapsed="1" parent="1c1d494c118603dd-1">
          <mxGeometry x="120" y="20" width="40" height="970" as="geometry">
            <mxRectangle x="80" y="20" width="250" height="970" as="alternateBounds" />
          </mxGeometry>
        </mxCell>
        <mxCell id="q2xnLpdlxY3K4vXlhci7-2" value="Lane 3" style="swimlane;html=1;startSize=20;" vertex="1" collapsed="1" parent="1c1d494c118603dd-1">
          <mxGeometry x="160" y="20" width="40" height="970" as="geometry">
            <mxRectangle x="80" y="20" width="250" height="970" as="alternateBounds" />
          </mxGeometry>
        </mxCell>
        <mxCell id="q2xnLpdlxY3K4vXlhci7-3" value="Lane 3" style="swimlane;html=1;startSize=20;" vertex="1" collapsed="1" parent="1c1d494c118603dd-1">
          <mxGeometry x="200" y="20" width="40" height="970" as="geometry">
            <mxRectangle x="80" y="20" width="250" height="970" as="alternateBounds" />
          </mxGeometry>
        </mxCell>
        <mxCell id="q2xnLpdlxY3K4vXlhci7-4" value="Lane 3" style="swimlane;html=1;startSize=20;" vertex="1" collapsed="1" parent="1c1d494c118603dd-1">
          <mxGeometry x="240" y="20" width="40" height="970" as="geometry">
            <mxRectangle x="80" y="20" width="250" height="970" as="alternateBounds" />
          </mxGeometry>
        </mxCell>
        <mxCell id="q2xnLpdlxY3K4vXlhci7-33" style="edgeStyle=orthogonalEdgeStyle;rounded=0;orthogonalLoop=1;jettySize=auto;html=1;entryX=0.5;entryY=1;entryDx=0;entryDy=0;" edge="1" parent="1" source="q2xnLpdlxY3K4vXlhci7-7" target="q2xnLpdlxY3K4vXlhci7-32">
          <mxGeometry relative="1" as="geometry" />
        </mxCell>
        <mxCell id="q2xnLpdlxY3K4vXlhci7-7" value="Администратор" style="shape=umlActor;verticalLabelPosition=bottom;verticalAlign=top;html=1;outlineConnect=0;" vertex="1" parent="1">
          <mxGeometry x="1320" y="570" width="30" height="60" as="geometry" />
        </mxCell>
        <mxCell id="q2xnLpdlxY3K4vXlhci7-17" style="edgeStyle=orthogonalEdgeStyle;rounded=0;orthogonalLoop=1;jettySize=auto;html=1;exitX=0.5;exitY=0.5;exitDx=0;exitDy=0;exitPerimeter=0;entryX=0;entryY=0.5;entryDx=0;entryDy=0;" edge="1" parent="1" source="q2xnLpdlxY3K4vXlhci7-8" target="q2xnLpdlxY3K4vXlhci7-16">
          <mxGeometry relative="1" as="geometry" />
        </mxCell>
        <mxCell id="q2xnLpdlxY3K4vXlhci7-25" style="edgeStyle=orthogonalEdgeStyle;rounded=0;orthogonalLoop=1;jettySize=auto;html=1;exitX=0.5;exitY=0.5;exitDx=0;exitDy=0;exitPerimeter=0;entryX=0.5;entryY=0;entryDx=0;entryDy=0;" edge="1" parent="1" source="q2xnLpdlxY3K4vXlhci7-8" target="q2xnLpdlxY3K4vXlhci7-24">
          <mxGeometry relative="1" as="geometry">
            <Array as="points">
              <mxPoint x="670" y="290" />
              <mxPoint x="670" y="240" />
              <mxPoint x="1310" y="240" />
            </Array>
          </mxGeometry>
        </mxCell>
        <mxCell id="q2xnLpdlxY3K4vXlhci7-30" style="edgeStyle=orthogonalEdgeStyle;rounded=0;orthogonalLoop=1;jettySize=auto;html=1;exitX=0.5;exitY=0.5;exitDx=0;exitDy=0;exitPerimeter=0;" edge="1" parent="1" source="q2xnLpdlxY3K4vXlhci7-8" target="q2xnLpdlxY3K4vXlhci7-29">
          <mxGeometry relative="1" as="geometry">
            <Array as="points">
              <mxPoint x="640" y="290" />
              <mxPoint x="640" y="600" />
            </Array>
          </mxGeometry>
        </mxCell>
        <mxCell id="q2xnLpdlxY3K4vXlhci7-8" value="Менеджер" style="shape=umlActor;verticalLabelPosition=bottom;verticalAlign=top;html=1;outlineConnect=0;" vertex="1" parent="1">
          <mxGeometry x="510" y="260" width="30" height="60" as="geometry" />
        </mxCell>
        <mxCell id="q2xnLpdlxY3K4vXlhci7-23" style="edgeStyle=orthogonalEdgeStyle;rounded=0;orthogonalLoop=1;jettySize=auto;html=1;exitX=0.5;exitY=0.5;exitDx=0;exitDy=0;exitPerimeter=0;entryX=0.5;entryY=1;entryDx=0;entryDy=0;" edge="1" parent="1" source="q2xnLpdlxY3K4vXlhci7-9" target="q2xnLpdlxY3K4vXlhci7-22">
          <mxGeometry relative="1" as="geometry" />
        </mxCell>
        <mxCell id="q2xnLpdlxY3K4vXlhci7-26" style="edgeStyle=orthogonalEdgeStyle;rounded=0;orthogonalLoop=1;jettySize=auto;html=1;exitX=0.5;exitY=0.5;exitDx=0;exitDy=0;exitPerimeter=0;entryX=0;entryY=0.5;entryDx=0;entryDy=0;" edge="1" parent="1" source="q2xnLpdlxY3K4vXlhci7-9" target="q2xnLpdlxY3K4vXlhci7-24">
          <mxGeometry relative="1" as="geometry">
            <Array as="points">
              <mxPoint x="1200" y="440" />
              <mxPoint x="1200" y="290" />
            </Array>
          </mxGeometry>
        </mxCell>
        <mxCell id="q2xnLpdlxY3K4vXlhci7-9" value="Младший менеджер" style="shape=umlActor;verticalLabelPosition=bottom;verticalAlign=top;html=1;outlineConnect=0;" vertex="1" parent="1">
          <mxGeometry x="970" y="410" width="30" height="60" as="geometry" />
        </mxCell>
        <mxCell id="q2xnLpdlxY3K4vXlhci7-13" style="edgeStyle=orthogonalEdgeStyle;rounded=0;orthogonalLoop=1;jettySize=auto;html=1;" edge="1" parent="1" source="q2xnLpdlxY3K4vXlhci7-10" target="q2xnLpdlxY3K4vXlhci7-12">
          <mxGeometry relative="1" as="geometry" />
        </mxCell>
        <mxCell id="q2xnLpdlxY3K4vXlhci7-10" value="Пешеход (исполнитель) &lt;div&gt;&lt;br&gt;&lt;/div&gt;" style="shape=umlActor;verticalLabelPosition=bottom;verticalAlign=top;html=1;outlineConnect=0;" vertex="1" parent="1">
          <mxGeometry x="510" y="630" width="30" height="60" as="geometry" />
        </mxCell>
        <mxCell id="q2xnLpdlxY3K4vXlhci7-12" value="мобильное приложение" style="rounded=0;whiteSpace=wrap;html=1;" vertex="1" parent="1">
          <mxGeometry x="690" y="780" width="120" height="60" as="geometry" />
        </mxCell>
        <mxCell id="q2xnLpdlxY3K4vXlhci7-14" value="backend" style="rounded=0;whiteSpace=wrap;html=1;" vertex="1" parent="1">
          <mxGeometry x="1030" y="10" width="120" height="60" as="geometry" />
        </mxCell>
        <mxCell id="q2xnLpdlxY3K4vXlhci7-15" value="api яндекс.карты" style="rounded=0;whiteSpace=wrap;html=1;" vertex="1" parent="1">
          <mxGeometry x="1260" y="10" width="120" height="60" as="geometry" />
        </mxCell>
        <mxCell id="q2xnLpdlxY3K4vXlhci7-20" style="edgeStyle=orthogonalEdgeStyle;rounded=0;orthogonalLoop=1;jettySize=auto;html=1;" edge="1" parent="1" source="q2xnLpdlxY3K4vXlhci7-16" target="q2xnLpdlxY3K4vXlhci7-19">
          <mxGeometry relative="1" as="geometry" />
        </mxCell>
        <mxCell id="q2xnLpdlxY3K4vXlhci7-16" value="Выбрать территорию работ" style="rounded=1;whiteSpace=wrap;html=1;" vertex="1" parent="1">
          <mxGeometry x="760" y="260" width="120" height="60" as="geometry" />
        </mxCell>
        <mxCell id="q2xnLpdlxY3K4vXlhci7-21" style="edgeStyle=orthogonalEdgeStyle;rounded=0;orthogonalLoop=1;jettySize=auto;html=1;" edge="1" parent="1" source="q2xnLpdlxY3K4vXlhci7-19" target="q2xnLpdlxY3K4vXlhci7-9">
          <mxGeometry relative="1" as="geometry" />
        </mxCell>
        <mxCell id="q2xnLpdlxY3K4vXlhci7-19" value="Выдать роль &quot;младший менеджер" style="rounded=1;whiteSpace=wrap;html=1;" vertex="1" parent="1">
          <mxGeometry x="760" y="380" width="120" height="60" as="geometry" />
        </mxCell>
        <mxCell id="q2xnLpdlxY3K4vXlhci7-27" style="edgeStyle=orthogonalEdgeStyle;rounded=0;orthogonalLoop=1;jettySize=auto;html=1;" edge="1" parent="1" source="q2xnLpdlxY3K4vXlhci7-22" target="q2xnLpdlxY3K4vXlhci7-24">
          <mxGeometry relative="1" as="geometry" />
        </mxCell>
        <mxCell id="q2xnLpdlxY3K4vXlhci7-22" value="Поделить терторию на зоны" style="rounded=1;whiteSpace=wrap;html=1;" vertex="1" parent="1">
          <mxGeometry x="1050" y="260" width="120" height="60" as="geometry" />
        </mxCell>
        <mxCell id="q2xnLpdlxY3K4vXlhci7-34" style="edgeStyle=orthogonalEdgeStyle;rounded=0;orthogonalLoop=1;jettySize=auto;html=1;exitX=0.5;exitY=1;exitDx=0;exitDy=0;" edge="1" parent="1" source="q2xnLpdlxY3K4vXlhci7-24" target="q2xnLpdlxY3K4vXlhci7-32">
          <mxGeometry relative="1" as="geometry" />
        </mxCell>
        <mxCell id="q2xnLpdlxY3K4vXlhci7-24" value="Присвоить зонам идентификатор партнёра" style="rounded=1;whiteSpace=wrap;html=1;" vertex="1" parent="1">
          <mxGeometry x="1250" y="260" width="120" height="60" as="geometry" />
        </mxCell>
        <mxCell id="q2xnLpdlxY3K4vXlhci7-31" style="edgeStyle=orthogonalEdgeStyle;rounded=0;orthogonalLoop=1;jettySize=auto;html=1;exitX=1;exitY=0.5;exitDx=0;exitDy=0;" edge="1" parent="1" source="q2xnLpdlxY3K4vXlhci7-29" target="q2xnLpdlxY3K4vXlhci7-7">
          <mxGeometry relative="1" as="geometry" />
        </mxCell>
        <mxCell id="q2xnLpdlxY3K4vXlhci7-29" value="Выдать роль Администратор" style="rounded=1;whiteSpace=wrap;html=1;" vertex="1" parent="1">
          <mxGeometry x="800" y="570" width="120" height="60" as="geometry" />
        </mxCell>
        <mxCell id="q2xnLpdlxY3K4vXlhci7-32" value="Зоны в административной панели" style="rounded=1;whiteSpace=wrap;html=1;" vertex="1" parent="1">
          <mxGeometry x="1380" y="430" width="120" height="60" as="geometry" />
        </mxCell>
      </root>
    </mxGraphModel>
  </diagram>
</mxfile>
